<svg width="24.000000" height="24.000000" viewBox="0 0 24 24" fill="none" xmlns="http://www.w3.org/2000/svg" xmlns:xlink="http://www.w3.org/1999/xlink">
	<desc>
			Created with Pixso.
	</desc>
	<defs/>
	<rect id="feather-icon / bell-off" width="24.000000" height="24.000000" fill="#FFFFFF" fill-opacity="0"/>
	<path id="Shape (Stroke)" d="M15.27 3.38C13.28 2.21 10.81 2.19 8.8 3.33C8.56 3.47 8.25 3.38 8.12 3.14C7.98 2.9 8.07 2.6 8.31 2.46C10.63 1.15 13.47 1.17 15.78 2.52C18.08 3.86 19.5 6.33 19.49 9L18.99 9L19.49 9L19.49 9L19.49 13C19.49 13.27 19.27 13.5 18.99 13.5C18.72 13.5 18.49 13.27 18.49 13L18.49 9L18.49 9C18.49 6.68 17.27 4.55 15.27 3.38ZM6 5.33C6.25 5.46 6.35 5.76 6.22 6C5.74 6.93 5.49 7.95 5.5 8.99L5.5 9L5.5 14C5.5 14.97 5.09 15.86 4.44 16.5L17 16.5C17.27 16.5 17.5 16.72 17.5 17C17.5 17.27 17.27 17.5 17 17.5L2 17.5C1.72 17.5 1.5 17.27 1.5 17C1.5 16.72 1.72 16.5 2 16.5C3.38 16.5 4.5 15.38 4.5 14L4.5 9L6 5.33ZM10.01 20.56C10.25 20.42 10.56 20.51 10.7 20.74C10.97 21.21 11.46 21.49 12 21.49C12.53 21.49 13.02 21.21 13.29 20.74C13.43 20.51 13.74 20.42 13.98 20.56C14.21 20.7 14.3 21.01 14.16 21.25C13.71 22.02 12.89 22.49 12 22.49C11.1 22.49 10.28 22.02 9.83 21.25C9.69 21.01 9.78 20.7 10.01 20.56Z" fill="#414141" fill-opacity="1.000000" fill-rule="evenodd"/>
	<path id="Shape (Stroke)" d="M0.64 0.64C0.84 0.45 1.15 0.45 1.35 0.64L23.35 22.64C23.54 22.84 23.54 23.15 23.35 23.35C23.15 23.54 22.84 23.54 22.64 23.35L0.64 1.35C0.45 1.15 0.45 0.84 0.64 0.64Z" fill="#414141" fill-opacity="1.000000" fill-rule="evenodd"/>
</svg>
