<svg width="24.000000" height="24.000000" viewBox="0 0 24 24" fill="none" xmlns="http://www.w3.org/2000/svg" xmlns:xlink="http://www.w3.org/1999/xlink">
	<desc>
			Created with Pixso.
	</desc>
	<defs/>
	<rect id="social / facebook" width="24.000000" height="24.000000" fill="#FFFFFF" fill-opacity="0"/>
	<path id="Subtract" d="M4.5 2L19.5 2C20.8789 2 22 3.12134 22 4.5L22 19.5C22 20.8787 20.8789 22 19.5 22L15.75 22L15.75 15.125L17.625 15.125L18.875 12L15.75 12L15.75 9.5C15.75 8.86572 16.2227 8.86938 16.8359 8.87427C16.8896 8.87451 16.9443 8.875 17 8.875L18.25 8.875L18.25 5.75L15.75 5.75C13.6787 5.75 12 7.42871 12 9.5L12 12L9.5 12L9.5 15.125L12 15.125L12 22L4.5 22C3.12109 22 2 20.8787 2 19.5L2 4.5C2 3.12134 3.12109 2 4.5 2Z" clip-rule="evenodd" fill="#1976D2" fill-opacity="1.000000" fill-rule="evenodd"/>
</svg>
