<svg width="24.000000" height="24.000000" viewBox="0 0 24 24" fill="none" xmlns="http://www.w3.org/2000/svg" xmlns:xlink="http://www.w3.org/1999/xlink">
	<desc>
			Created with Pixso.
	</desc>
	<defs>
		<linearGradient id="paint_linear_44_11624_0" x1="4.929127" y1="19.070873" x2="19.070875" y2="4.929125" gradientUnits="userSpaceOnUse">
			<stop stop-color="#FFC107"/>
			<stop offset="0.507000" stop-color="#F44336"/>
			<stop offset="0.990000" stop-color="#9C27B0"/>
		</linearGradient>
	</defs>
	<rect id="social / instagram" width="24.000000" height="24.000000" fill="#FFFFFF" fill-opacity="0"/>
	<path id="Union" d="M8.25 2L15.75 2C19.2012 2 22 4.79883 22 8.25L22 15.75C22 19.2012 19.2012 22 15.75 22L8.25 22C4.79883 22 2 19.2012 2 15.75L2 8.25C2 4.79883 4.79883 2 8.25 2ZM15.75 20.125C18.1621 20.125 20.125 18.1626 20.125 15.75L20.125 8.25C20.125 5.8374 18.1621 3.875 15.75 3.875L8.25 3.875C5.83789 3.875 3.875 5.8374 3.875 8.25L3.875 15.75C3.875 18.1626 5.83789 20.125 8.25 20.125L15.75 20.125ZM17.3994 7.19995C17.7314 7.19995 18 6.9314 18 6.6001C18 6.26855 17.7314 6 17.3994 6C17.0684 6 16.7998 6.26855 16.7998 6.6001C16.7998 6.9314 17.0684 7.19995 17.3994 7.19995ZM12 7.2002C9.34961 7.2002 7.2002 9.34937 7.2002 12.0002C7.2002 14.6509 9.34961 16.8003 12 16.8003C14.6514 16.8003 16.7998 14.6509 16.7998 12.0002C16.7998 9.34937 14.6514 7.2002 12 7.2002ZM12 15.0002C10.3467 15.0002 9 13.6538 9 12.0002C9 10.3455 10.3467 9.00024 12 9.00024C13.6533 9.00024 15 10.3455 15 12.0002C15 13.6538 13.6533 15.0002 12 15.0002Z" clip-rule="evenodd" fill="url(#paint_linear_44_11624_0)" fill-opacity="1.000000" fill-rule="evenodd"/>
</svg>
