<svg width="36.000000" height="36.000000" viewBox="0 0 36 36" fill="none" xmlns="http://www.w3.org/2000/svg" xmlns:xlink="http://www.w3.org/1999/xlink">
	<desc>
			Created with Pixso.
	</desc>
	<defs/>
	<rect id="feather-icon / user" width="16.000000" height="16.000000" transform="translate(10.000000 10.000000)" fill="#FFFFFF" fill-opacity="0"/>
	<path id="Shape (Stroke)" d="M12.33 22.66C12.33 21 13.67 19.66 15.33 19.66L20.66 19.66C22.32 19.66 23.66 21 23.66 22.66L23.66 24C23.66 24.18 23.51 24.33 23.33 24.33C23.14 24.33 23 24.18 23 24L23 22.66C23 21.37 21.95 20.33 20.66 20.33L15.33 20.33C14.04 20.33 13 21.37 13 22.66L13 24C13 24.18 12.85 24.33 12.66 24.33C12.48 24.33 12.33 24.18 12.33 24L12.33 22.66Z" fill="#414141" fill-opacity="1.000000" fill-rule="evenodd"/>
	<path id="Oval (Stroke)" d="M15 14.66C15 13 16.34 11.66 18 11.66C19.65 11.66 21 13 21 14.66C21 16.32 19.65 17.66 18 17.66C16.34 17.66 15 16.32 15 14.66ZM18 12.33C16.71 12.33 15.66 13.37 15.66 14.66C15.66 15.95 16.71 17 18 17C19.28 17 20.33 15.95 20.33 14.66C20.33 13.37 19.28 12.33 18 12.33Z" fill="#414141" fill-opacity="1.000000" fill-rule="evenodd"/>
	<rect id="Frame 143" rx="17.500000" width="35.000000" height="35.000000" transform="translate(0.500000 0.500000)" stroke="#F3F2F1" stroke-opacity="1.000000" stroke-width="1.000000"/>
</svg>
