<svg class='header__img-icons' width="24.000000" height="24.000000" viewBox="0 0 24 24" fill="none" xmlns="http://www.w3.org/2000/svg" xmlns:xlink="http://www.w3.org/1999/xlink">
	<desc>
			Created with Pixso.
	</desc>
	<defs/>
	<rect id="Frame 211" width="24.000000" height="24.000000" transform="translate(-0.500000 0.000000)" fill="#FFFFFF" fill-opacity="0"/>
	<path id="Shape (Stroke)" d="M12.2 4.25C13.33 3.13 14.85 2.49 16.44 2.49C18.04 2.49 19.56 3.13 20.69 4.25C21.81 5.38 22.45 6.9 22.45 8.5C22.45 10.09 21.81 11.61 20.69 12.74L11.85 21.58C11.65 21.77 11.33 21.77 11.14 21.58L2.3 12.74C-0.04 10.39 -0.04 6.6 2.3 4.25C4.64 1.91 8.44 1.91 10.79 4.25L11.49 4.96L12.2 4.25ZM16.44 3.49C15.12 3.49 13.84 4.02 12.91 4.96L11.85 6.02C11.75 6.11 11.63 6.16 11.49 6.16C11.36 6.16 11.23 6.11 11.14 6.02L10.08 4.96C8.13 3.01 4.96 3.01 3.01 4.96C1.05 6.91 1.05 10.08 3.01 12.03L11.49 20.52L19.98 12.03C20.92 11.09 21.45 9.82 21.45 8.5C21.45 7.17 20.92 5.9 19.98 4.96C19.04 4.02 17.77 3.49 16.44 3.49Z" fill="#414141" fill-opacity="1.000000" fill-rule="evenodd"/>
</svg>
