<svg width="32.000000" height="32.000000" viewBox="0 0 32 32" fill="none" xmlns="http://www.w3.org/2000/svg" xmlns:xlink="http://www.w3.org/1999/xlink">
	<desc>
			Created with Pixso.
	</desc>
	<defs/>
	<g opacity="0.500000">
		<rect id="Button" rx="4.000000" width="32.000000" height="32.000000" fill="#F3F2F1" fill-opacity="1.000000"/>
		<rect id="feather-icon / heart" width="24.000000" height="24.000000" transform="translate(4.000000 4.000000)" fill="#FFFFFF" fill-opacity="0"/>
		<path id="Shape (Stroke)" d="M16.7 8.25C17.83 7.13 19.35 6.49 20.94 6.49C22.54 6.49 24.06 7.13 25.19 8.25C26.31 9.38 26.95 10.9 26.95 12.5C26.95 14.09 26.31 15.61 25.19 16.74L16.35 25.58C16.15 25.77 15.83 25.77 15.64 25.58L6.8 16.74C4.46 14.39 4.46 10.6 6.8 8.25C9.14 5.91 12.94 5.91 15.29 8.25L15.99 8.96L16.7 8.25ZM20.94 7.49C19.62 7.49 18.34 8.02 17.41 8.96L16.35 10.02C16.25 10.11 16.13 10.16 15.99 10.16C15.86 10.16 15.73 10.11 15.64 10.02L14.58 8.96C12.63 7.01 9.46 7.01 7.51 8.96C5.55 10.91 5.55 14.08 7.51 16.03L15.99 24.52L24.48 16.03C25.42 15.09 25.95 13.82 25.95 12.5C25.95 11.17 25.42 9.9 24.48 8.96C23.54 8.02 22.27 7.49 20.94 7.49Z" fill="#414141" fill-opacity="1.000000" fill-rule="evenodd"/>
	</g>
</svg>
